<?xml version="1.0" encoding="UTF-8"?>
<svg id="Layer_1" data-name="Layer 1" xmlns="http://www.w3.org/2000/svg" xmlns:xlink="http://www.w3.org/1999/xlink" viewBox="0 0 504 504">
  <defs>
    <style>
      .cls-1 {
        fill: none;
      }

      .cls-2 {
        clip-path: url(#clippath-1);
      }

      .cls-3 {
        clip-path: url(#clippath);
      }
    </style>
    <clipPath id="clippath">
      <rect class="cls-1" x="1346.4" y="700.39" width="851" height="315"/>
    </clipPath>
    <clipPath id="clippath-1">
      <rect class="cls-1" x="1346.4" y="-1560.35" width="1584" height="396"/>
    </clipPath>
    <image id="image" width="4000" height="6000" xlink:href="../../../../../Background/susan-wilkinson-Wy9LDT6wCxE-unsplash.jpg"/>
  </defs>
  <g class="cls-3">
    <use transform="translate(-217.64 1846.98) rotate(-90) scale(.44)" xlink:href="#image"/>
  </g>
  <g class="cls-2">
    <use transform="translate(-925.76 256.93) rotate(-90) scale(.69)" xlink:href="#image"/>
  </g>
  <g>
    <circle cx="334.26" cy="254.43" r="8.55"/>
    <path d="M149.01,166.65c.19,2.78.76,5.32,1.71,7.62s2.19,4.28,3.74,5.94c1.54,1.66,3.36,2.95,5.44,3.85,2.08.91,4.38,1.36,6.89,1.36,2.2,0,4.31-.23,6.34-.7,2.03-.46,3.81-1.22,5.36-2.26,1.54-1.04,2.78-2.4,3.71-4.08.93-1.68,1.39-3.74,1.39-6.17,0-2.2-.67-4.04-2-5.53-1.33-1.49-3.08-2.79-5.24-3.91-2.16-1.12-4.63-2.12-7.41-3.01-2.78-.89-5.61-1.81-8.48-2.78-2.88-.96-5.71-2.06-8.48-3.27-2.78-1.22-5.25-2.7-7.41-4.46-2.16-1.76-3.91-3.87-5.24-6.34-1.33-2.47-2-5.44-2-8.92,0-3.55.69-6.69,2.09-9.41,1.39-2.72,3.35-5.01,5.88-6.86s5.54-3.25,9.04-4.2c3.49-.95,7.33-1.42,11.5-1.42,5.56,0,10.18.81,13.87,2.43,3.69,1.62,6.65,3.72,8.89,6.28,2.24,2.57,3.86,5.41,4.87,8.54,1,3.13,1.6,6.2,1.8,9.21h-13.96c-.23-2.59-.78-4.83-1.65-6.72s-2-3.46-3.39-4.69c-1.39-1.24-2.97-2.15-4.75-2.75-1.78-.6-3.67-.9-5.68-.9-1.82,0-3.61.18-5.39.55s-3.36.97-4.75,1.8c-1.39.83-2.51,1.91-3.36,3.24-.85,1.33-1.27,2.96-1.27,4.89,0,2.24.67,4.12,2,5.65,1.33,1.53,3.08,2.86,5.24,4s4.63,2.16,7.41,3.07c2.78.91,5.62,1.85,8.51,2.84,2.9.98,5.73,2.07,8.51,3.27,2.78,1.2,5.25,2.66,7.41,4.4,2.16,1.74,3.91,3.82,5.24,6.25s2,5.35,2,8.74c0,4.13-.76,7.74-2.29,10.83-1.53,3.09-3.65,5.66-6.37,7.7-2.72,2.05-5.95,3.59-9.67,4.63-3.73,1.04-7.81,1.56-12.25,1.56-3.98,0-7.84-.69-11.58-2.09-3.75-1.39-7.1-3.4-10.05-6.02-2.95-2.63-5.35-5.8-7.18-9.53-1.83-3.73-2.81-7.94-2.92-12.66h13.96Z"/>
    <path d="M280.67,114.12v11.52s-25.54,0-25.54,0v69.27s-13.67,0-13.67,0v-69.27s-25.6,0-25.6,0v-11.52s64.81,0,64.81,0Z"/>
    <path d="M317.92,114.12v53.51c0,2.82.46,5.34,1.39,7.56.93,2.22,2.16,4.09,3.71,5.62,1.54,1.53,3.33,2.69,5.36,3.48s4.14,1.19,6.34,1.19c2.35,0,4.64-.37,6.86-1.1,2.22-.73,4.2-1.83,5.94-3.3,1.74-1.47,3.13-3.3,4.17-5.5,1.04-2.2,1.56-4.77,1.56-7.7v-53.75s13.67,0,13.67,0v53.17c0,4.83-.9,9.08-2.69,12.77-1.8,3.69-4.18,6.79-7.15,9.3-2.97,2.51-6.39,4.4-10.25,5.68-3.86,1.27-7.86,1.91-11.99,1.91s-7.75-.63-11.44-1.88c-3.69-1.25-6.95-3.13-9.79-5.62-2.84-2.49-5.11-5.61-6.81-9.35s-2.55-8.09-2.55-13.03v-52.94s13.67,0,13.67,0Z"/>
    <path d="M137.37,214.04h31.39c5.56,0,10.55,1.05,14.97,3.16,4.42,2.1,8.19,4.98,11.29,8.63,3.11,3.65,5.49,7.91,7.15,12.8,1.66,4.88,2.49,10.11,2.49,15.67s-.87,11.16-2.61,16.1c-1.74,4.94-4.19,9.23-7.36,12.86-3.17,3.63-6.95,6.47-11.35,8.51-4.4,2.05-9.27,3.07-14.6,3.07h-31.39s0-80.79,0-80.79ZM151.03,283.13h14.48c3.67,0,7.07-.63,10.19-1.88,3.13-1.25,5.82-3.1,8.08-5.53,2.26-2.43,4.03-5.43,5.3-9.01,1.27-3.57,1.91-7.67,1.91-12.31,0-4.98-.65-9.29-1.94-12.92-1.29-3.63-3.07-6.62-5.33-8.98-2.26-2.35-4.95-4.1-8.08-5.24-3.13-1.14-6.51-1.71-10.14-1.71h-14.48s0,57.57,0,57.57Z"/>
    <path d="M255.16,214.04v80.79s-13.67,0-13.67,0v-80.79s13.67,0,13.67,0Z"/>
    <path d="M371.61,254.23c0,6.25-.83,12-2.49,17.23-1.66,5.23-4.08,9.73-7.27,13.49-3.19,3.76-7.1,6.69-11.73,8.77-4.63,2.09-9.94,3.13-15.93,3.13-5.99,0-11.29-1.05-15.9-3.16-4.61-2.1-8.51-5.04-11.7-8.8-3.19-3.76-5.6-8.26-7.24-13.49-1.64-5.23-2.46-10.98-2.46-17.23s.82-11.97,2.46-17.14c1.64-5.17,4.05-9.61,7.24-13.32,3.19-3.71,7.08-6.58,11.7-8.63,4.61-2.05,9.91-3.07,15.9-3.07,5.98,0,11.29,1.03,15.93,3.1,4.63,2.07,8.54,4.95,11.73,8.66,3.19,3.71,5.61,8.15,7.27,13.32s2.49,10.89,2.49,17.14ZM357.94,254.17c0-4.9-.62-9.27-1.85-13.09-1.24-3.82-2.92-7.04-5.07-9.64s-4.65-4.59-7.53-5.97c-2.88-1.37-5.98-2.06-9.3-2.06s-6.48.69-9.35,2.06c-2.88,1.37-5.37,3.36-7.47,5.97-2.1,2.61-3.76,5.82-4.98,9.64-1.22,3.82-1.82,8.19-1.82,13.09s.61,9.29,1.82,13.15c1.22,3.86,2.88,7.13,4.98,9.82,2.1,2.68,4.59,4.73,7.47,6.14,2.88,1.41,5.99,2.11,9.35,2.11s6.42-.7,9.3-2.11c2.88-1.41,5.39-3.46,7.53-6.14,2.14-2.68,3.83-5.96,5.07-9.82,1.24-3.86,1.85-8.24,1.85-13.15Z"/>
    <path d="M137.57,358.2l5.39-43.32h44.77s0,10.66,0,10.66h-33.59s-1.27,11.18-1.27,11.18c-.08.62-.15,1.17-.23,1.65s-.14.95-.2,1.42c-.06.46-.13.94-.2,1.42-.08.48-.15,1.03-.23,1.65,1.31-.54,2.61-.96,3.91-1.27,1.29-.31,2.51-.54,3.65-.7,1.14-.15,2.16-.25,3.07-.29.91-.04,1.65-.06,2.23-.06,3.86,0,7.45.71,10.77,2.11,3.32,1.41,6.18,3.33,8.57,5.76,2.39,2.43,4.28,5.28,5.65,8.54,1.37,3.26,2.06,6.77,2.06,10.51,0,3.44-.59,6.79-1.77,10.05-1.18,3.26-2.95,6.16-5.33,8.69-2.37,2.53-5.39,4.56-9.03,6.08s-7.93,2.29-12.83,2.29c-3.32,0-6.46-.48-9.41-1.45-2.95-.96-5.64-2.43-8.05-4.4s-4.51-4.44-6.28-7.41c-1.78-2.97-3.15-6.45-4.11-10.42h13.9c.62,2.08,1.43,3.94,2.43,5.56,1,1.62,2.12,3,3.36,4.14,1.23,1.14,2.55,2,3.94,2.58,1.39.58,2.82.87,4.29.87,2.12,0,4.12-.42,5.99-1.27,1.87-.85,3.5-2.02,4.89-3.5,1.39-1.49,2.49-3.24,3.3-5.27.81-2.03,1.22-4.2,1.22-6.52s-.44-4.52-1.33-6.49c-.89-1.97-2.06-3.67-3.5-5.1s-3.09-2.54-4.92-3.33c-1.83-.79-3.72-1.19-5.65-1.19-1.08,0-2.22.15-3.42.46-1.2.31-2.38.75-3.53,1.33-1.16.58-2.29,1.29-3.39,2.14s-2.08,1.81-2.93,2.9h-12.16Z"/>
    <path d="M224.46,370.59c0-1.81.24-3.62.72-5.41.48-1.8,1.22-3.5,2.2-5.13.98-1.62,2.24-3.13,3.76-4.52,1.52-1.39,3.33-2.59,5.42-3.59-1.7-.97-3.19-1.97-4.46-3.01-1.27-1.04-2.35-2.22-3.21-3.53s-1.53-2.79-1.97-4.43c-.44-1.64-.67-3.54-.67-5.7,0-2.97.62-5.76,1.85-8.37,1.23-2.61,2.97-4.88,5.21-6.83,2.24-1.95,4.92-3.49,8.05-4.63,3.13-1.14,6.58-1.71,10.37-1.71s7.48.6,10.63,1.8,5.84,2.81,8.08,4.84c2.24,2.03,3.96,4.37,5.15,7.04s1.8,5.48,1.8,8.46c0,1.58-.24,3.13-.72,4.63-.48,1.51-1.16,2.94-2.03,4.32-.87,1.37-1.89,2.65-3.07,3.85-1.18,1.2-2.46,2.3-3.85,3.3,1.66,1.04,3.2,2.26,4.61,3.65,1.41,1.39,2.63,2.9,3.65,4.52,1.02,1.62,1.82,3.32,2.4,5.1s.87,3.57.87,5.39c0,3.71-.72,7.04-2.14,9.99-1.43,2.95-3.38,5.47-5.85,7.56-2.47,2.08-5.38,3.68-8.72,4.78-3.34,1.1-6.94,1.65-10.8,1.65-3.78,0-7.34-.48-10.66-1.45-3.32-.96-6.22-2.44-8.69-4.43s-4.41-4.49-5.82-7.5c-1.41-3.01-2.11-6.54-2.11-10.6ZM238.01,370.59c0,1.85.36,3.6,1.07,5.24.71,1.64,1.7,3.08,2.95,4.32,1.25,1.24,2.71,2.21,4.37,2.92,1.66.72,3.44,1.07,5.33,1.07s3.74-.36,5.44-1.07c1.7-.71,3.18-1.69,4.43-2.92,1.25-1.24,2.24-2.67,2.95-4.32.71-1.64,1.07-3.39,1.07-5.24s-.36-3.59-1.07-5.21c-.71-1.62-1.7-3.04-2.95-4.26-1.26-1.22-2.73-2.17-4.43-2.87-1.7-.69-3.51-1.04-5.44-1.04s-3.67.35-5.33,1.04c-1.66.7-3.12,1.65-4.37,2.87-1.26,1.22-2.24,2.64-2.95,4.26-.71,1.62-1.07,3.36-1.07,5.21ZM239.86,335.84c0,1.47.31,2.86.93,4.17.62,1.31,1.47,2.46,2.55,3.45,1.08.98,2.35,1.77,3.79,2.35,1.45.58,2.98.87,4.6.87s3.23-.29,4.72-.87c1.49-.58,2.78-1.36,3.88-2.35,1.1-.98,1.97-2.13,2.61-3.45.64-1.31.95-2.7.95-4.17s-.28-2.9-.84-4.32c-.56-1.41-1.36-2.66-2.4-3.76s-2.32-1.98-3.82-2.64c-1.51-.66-3.21-.98-5.1-.98s-3.64.33-5.13.98c-1.49.66-2.73,1.54-3.74,2.64s-1.76,2.35-2.26,3.76c-.5,1.41-.75,2.85-.75,4.32Z"/>
    <path d="M322.01,393.41c.89-6.18,2.09-12.25,3.62-18.22,1.52-5.96,3.44-11.79,5.73-17.49,2.3-5.69,5.01-11.23,8.14-16.62,3.13-5.39,6.74-10.57,10.83-15.55h-39.56s0-10.66,0-10.66h56.59s0,8.63,0,8.63c-3.94,4.94-7.58,9.9-10.92,14.89-3.34,4.98-6.34,10.24-9.01,15.78s-4.96,11.52-6.89,17.93c-1.93,6.41-3.44,13.51-4.52,21.31h-14.01Z"/>
  </g>
  <path d="M252,494.79c-133.87,0-242.79-108.91-242.79-242.79S118.13,9.21,252,9.21s242.79,108.91,242.79,242.79-108.91,242.79-242.79,242.79ZM252,23.87C126.21,23.87,23.87,126.21,23.87,252s102.34,228.13,228.13,228.13,228.13-102.34,228.13-228.13S377.79,23.87,252,23.87Z"/>
</svg>