<?xml version="1.0" encoding="UTF-8"?>
<svg id="Layer_1" data-name="Layer 1" xmlns="http://www.w3.org/2000/svg" xmlns:xlink="http://www.w3.org/1999/xlink" viewBox="0 0 504 504">
  <defs>
    <style>
      .cls-1 {
        fill: none;
      }

      .cls-2 {
        fill: #ed1c24;
      }

      .cls-3 {
        clip-path: url(#clippath-1);
      }

      .cls-4 {
        clip-path: url(#clippath);
      }
    </style>
    <clipPath id="clippath">
      <rect class="cls-1" x="780.56" y="709.39" width="851" height="315"/>
    </clipPath>
    <clipPath id="clippath-1">
      <rect class="cls-1" x="780.56" y="-1551.35" width="1584" height="396"/>
    </clipPath>
    <image id="image" width="4000" height="6000" xlink:href="../../../../../../Background/susan-wilkinson-Wy9LDT6wCxE-unsplash.jpg"/>
  </defs>
  <circle class="cls-2" cx="250.27" cy="252" r="232.09"/>
  <g class="cls-4">
    <use transform="translate(-783.48 1855.98) rotate(-90) scale(.44)" xlink:href="#image"/>
  </g>
  <g class="cls-3">
    <use transform="translate(-1491.6 265.93) rotate(-90) scale(.69)" xlink:href="#image"/>
  </g>
  <g>
    <path d="M202.48,163.67l10.29-82.78h85.54s0,20.36,0,20.36h-64.18s-2.44,21.36-2.44,21.36c-.15,1.18-.3,2.23-.44,3.15s-.28,1.82-.39,2.71c-.11.88-.24,1.79-.39,2.71-.15.92-.3,1.98-.44,3.15,2.51-1.03,5-1.84,7.47-2.43,2.47-.59,4.8-1.03,6.97-1.33,2.18-.29,4.13-.48,5.87-.55,1.73-.07,3.15-.11,4.26-.11,7.38,0,14.24,1.35,20.58,4.04,6.34,2.69,11.8,6.36,16.38,11.01,4.57,4.65,8.17,10.09,10.79,16.32,2.62,6.23,3.93,12.93,3.93,20.08,0,6.57-1.13,12.97-3.38,19.2-2.25,6.24-5.65,11.77-10.18,16.6-4.54,4.83-10.29,8.71-17.26,11.62s-15.14,4.37-24.51,4.37c-6.35,0-12.34-.92-17.98-2.77-5.64-1.84-10.77-4.65-15.38-8.41-4.61-3.76-8.61-8.48-12.01-14.17-3.4-5.68-6.02-12.32-7.86-19.92h26.56c1.18,3.98,2.73,7.52,4.65,10.62,1.92,3.1,4.06,5.74,6.42,7.91,2.36,2.18,4.87,3.82,7.52,4.92,2.65,1.11,5.38,1.66,8.19,1.66,4.06,0,7.87-.81,11.45-2.44,3.58-1.62,6.7-3.85,9.35-6.69,2.66-2.84,4.76-6.2,6.31-10.07,1.55-3.88,2.32-8.02,2.32-12.45,0-4.5-.85-8.63-2.55-12.39-1.7-3.76-3.93-7.01-6.7-9.74-2.77-2.73-5.9-4.85-9.41-6.36-3.5-1.51-7.1-2.27-10.79-2.27-2.07,0-4.24.29-6.53.88-2.29.59-4.54,1.44-6.75,2.55-2.21,1.11-4.37,2.47-6.47,4.09s-3.97,3.47-5.59,5.53h-23.24Z"/>
    <g>
      <path d="M115.25,361.42c0-3.47.46-6.92,1.38-10.35.92-3.43,2.32-6.7,4.2-9.79,1.88-3.1,4.28-5.98,7.19-8.63,2.91-2.65,6.36-4.94,10.35-6.86-3.25-1.84-6.09-3.76-8.52-5.75-2.44-1.99-4.48-4.24-6.14-6.75-1.66-2.51-2.92-5.33-3.76-8.47-.85-3.13-1.27-6.77-1.27-10.9,0-5.68,1.18-11.01,3.54-15.99,2.36-4.98,5.68-9.33,9.96-13.06,4.28-3.73,9.41-6.68,15.38-8.85,5.98-2.18,12.58-3.26,19.81-3.26,7.52,0,14.29,1.14,20.31,3.43,6.01,2.29,11.16,5.37,15.44,9.24,4.28,3.87,7.56,8.35,9.85,13.45,2.29,5.09,3.43,10.48,3.43,16.16,0,3.03-.46,5.98-1.38,8.85-.92,2.88-2.21,5.63-3.87,8.25-1.66,2.62-3.62,5.07-5.87,7.36-2.25,2.29-4.7,4.39-7.36,6.31,3.17,1.99,6.11,4.32,8.8,6.97,2.69,2.66,5.02,5.53,6.97,8.63,1.95,3.1,3.49,6.35,4.59,9.74,1.11,3.39,1.66,6.82,1.66,10.29,0,7.08-1.37,13.45-4.09,19.09-2.73,5.64-6.46,10.46-11.18,14.44-4.72,3.98-10.27,7.03-16.65,9.13-6.38,2.1-13.26,3.15-20.64,3.15s-14.02-.92-20.36-2.77c-6.35-1.84-11.88-4.66-16.6-8.46-4.72-3.8-8.43-8.58-11.12-14.33-2.69-5.75-4.04-12.5-4.04-20.25ZM141.15,361.42c0,3.54.68,6.88,2.05,10.02,1.36,3.14,3.25,5.88,5.65,8.25,2.4,2.36,5.18,4.22,8.35,5.59,3.17,1.37,6.56,2.05,10.18,2.05,3.69,0,7.15-.68,10.4-2.05,3.25-1.36,6.07-3.23,8.47-5.59,2.4-2.36,4.28-5.11,5.64-8.25,1.36-3.13,2.05-6.47,2.05-10.02s-.68-6.86-2.05-9.96c-1.36-3.1-3.25-5.81-5.64-8.13-2.4-2.32-5.22-4.15-8.47-5.48-3.25-1.33-6.71-1.99-10.4-1.99-3.62,0-7.01.66-10.18,1.99-3.17,1.33-5.96,3.15-8.35,5.48-2.4,2.32-4.28,5.04-5.65,8.13-1.36,3.1-2.05,6.42-2.05,9.96ZM144.69,295.02c0,2.81.59,5.46,1.77,7.97,1.18,2.51,2.8,4.7,4.87,6.58,2.06,1.88,4.48,3.37,7.25,4.48,2.77,1.11,5.7,1.66,8.8,1.66,3.17,0,6.18-.55,9.02-1.66,2.84-1.11,5.31-2.6,7.42-4.48,2.1-1.88,3.76-4.08,4.98-6.58,1.22-2.51,1.82-5.16,1.82-7.97,0-2.8-.53-5.55-1.6-8.25-1.07-2.69-2.6-5.09-4.59-7.19-1.99-2.1-4.43-3.78-7.3-5.04-2.88-1.25-6.12-1.88-9.74-1.88-3.69,0-6.96.63-9.79,1.88-2.84,1.26-5.22,2.93-7.14,5.04-1.92,2.1-3.36,4.5-4.32,7.19-.96,2.69-1.44,5.44-1.44,8.25Z"/>
      <path d="M302.1,405.02c1.7-11.8,4-23.41,6.92-34.81,2.91-11.4,6.56-22.54,10.96-33.42,4.39-10.88,9.57-21.47,15.55-31.76,5.98-10.29,12.87-20.2,20.69-29.71h-75.58s0-20.36,0-20.36h108.12s0,16.49,0,16.49c-7.53,9.45-14.48,18.92-20.86,28.44-6.38,9.52-12.12,19.57-17.21,30.16-5.09,10.59-9.48,22-13.17,34.25-3.69,12.25-6.57,25.82-8.63,40.72h-26.78Z"/>
    </g>
  </g>
  <path d="M252,7.91C117.41,7.91,7.91,117.41,7.91,252s109.5,244.09,244.09,244.09,244.1-109.5,244.1-244.09S386.6,7.91,252,7.91ZM252,475.54c-123.26,0-223.54-100.28-223.54-223.54S128.74,28.46,252,28.46s223.54,100.28,223.54,223.54-100.28,223.54-223.54,223.54Z"/>
</svg>