<?xml version="1.0" encoding="UTF-8"?>
<svg id="Layer_1" data-name="Layer 1" xmlns="http://www.w3.org/2000/svg" viewBox="0 0 504 504">
  <defs>
    <style>
      .cls-1 {
        fill: #ed1c24;
      }

      .cls-2 {
        fill: #fff;
      }
    </style>
  </defs>
  <circle class="cls-1" cx="252" cy="252" r="245.05"/>
  <g>
    <path class="cls-2" d="M202.97,171.95l9.78-78.62h81.24s0,19.34,0,19.34h-60.96s-2.31,20.28-2.31,20.28c-.14,1.12-.28,2.12-.42,3-.14.88-.26,1.73-.37,2.58-.11.84-.23,1.7-.37,2.57-.14.88-.28,1.88-.42,3,2.38-.98,4.75-1.75,7.09-2.31,2.35-.56,4.55-.98,6.62-1.26,2.07-.28,3.92-.45,5.57-.52,1.65-.07,3-.11,4.05-.11,7.01,0,13.52,1.28,19.55,3.84,6.02,2.56,11.21,6.04,15.56,10.46,4.34,4.41,7.76,9.58,10.25,15.5,2.49,5.92,3.73,12.28,3.73,19.08,0,6.24-1.07,12.32-3.21,18.23-2.14,5.92-5.36,11.18-9.67,15.77-4.31,4.59-9.77,8.27-16.4,11.04-6.62,2.77-14.38,4.15-23.28,4.15-6.03,0-11.72-.88-17.08-2.63-5.36-1.75-10.23-4.41-14.61-7.99-4.38-3.57-8.18-8.06-11.4-13.45-3.22-5.39-5.71-11.7-7.46-18.92h25.22c1.12,3.78,2.59,7.15,4.41,10.09,1.82,2.94,3.85,5.45,6.1,7.51,2.24,2.07,4.62,3.63,7.15,4.68,2.52,1.05,5.11,1.58,7.78,1.58,3.85,0,7.48-.77,10.88-2.31,3.4-1.54,6.36-3.66,8.88-6.36,2.52-2.7,4.52-5.89,5.99-9.56,1.47-3.68,2.21-7.62,2.21-11.83,0-4.27-.81-8.2-2.42-11.77-1.61-3.57-3.73-6.66-6.36-9.25-2.63-2.59-5.61-4.61-8.93-6.04-3.33-1.44-6.74-2.15-10.25-2.15-1.96,0-4.03.28-6.2.84-2.17.56-4.31,1.36-6.41,2.42-2.1,1.05-4.15,2.35-6.15,3.89-2,1.54-3.77,3.29-5.31,5.26h-22.07Z"/>
    <g>
      <path class="cls-2" d="M120.34,361.15c0-3.29.44-6.57,1.31-9.83.87-3.26,2.21-6.36,3.99-9.3,1.79-2.94,4.06-5.68,6.83-8.2,2.77-2.52,6.04-4.69,9.83-6.52-3.09-1.75-5.78-3.57-8.09-5.47-2.31-1.89-4.26-4.03-5.83-6.41-1.58-2.38-2.77-5.06-3.57-8.04-.81-2.98-1.21-6.43-1.21-10.35,0-5.39,1.12-10.46,3.36-15.19,2.24-4.73,5.39-8.86,9.46-12.4,4.06-3.54,8.93-6.34,14.61-8.41,5.68-2.07,11.95-3.1,18.81-3.1,7.15,0,13.57,1.09,19.29,3.26,5.71,2.17,10.6,5.1,14.66,8.77,4.06,3.68,7.18,7.93,9.35,12.77,2.17,4.83,3.26,9.95,3.26,15.35,0,2.88-.44,5.68-1.31,8.41-.88,2.73-2.1,5.34-3.68,7.83-1.58,2.49-3.43,4.82-5.57,6.99-2.14,2.17-4.47,4.17-6.99,5.99,3.01,1.89,5.8,4.1,8.36,6.62,2.56,2.52,4.76,5.26,6.62,8.2,1.86,2.94,3.31,6.03,4.36,9.25,1.05,3.22,1.58,6.48,1.58,9.77,0,6.73-1.3,12.77-3.89,18.13-2.59,5.36-6.13,9.93-10.62,13.72-4.49,3.78-9.76,6.67-15.82,8.67-6.06,1.99-12.59,2.99-19.6,2.99-6.87,0-13.31-.88-19.34-2.63-6.03-1.75-11.28-4.43-15.77-8.04-4.48-3.61-8.01-8.15-10.56-13.61-2.56-5.47-3.84-11.87-3.84-19.23ZM144.94,361.15c0,3.36.65,6.53,1.94,9.51,1.3,2.98,3.08,5.59,5.36,7.83,2.28,2.24,4.92,4.01,7.93,5.31,3.01,1.3,6.23,1.95,9.67,1.95,3.5,0,6.79-.65,9.88-1.95,3.08-1.3,5.76-3.06,8.04-5.31,2.28-2.24,4.06-4.85,5.36-7.83,1.3-2.98,1.95-6.15,1.95-9.51,0-3.36-.65-6.52-1.95-9.46-1.3-2.94-3.08-5.52-5.36-7.72-2.28-2.21-4.96-3.94-8.04-5.2-3.09-1.26-6.38-1.89-9.88-1.89-3.43,0-6.66.63-9.67,1.89-3.01,1.26-5.66,3-7.93,5.2-2.28,2.21-4.07,4.78-5.36,7.72-1.3,2.94-1.94,6.1-1.94,9.46ZM148.3,298.09c0,2.67.56,5.19,1.68,7.57,1.12,2.38,2.66,4.47,4.62,6.25,1.96,1.78,4.26,3.2,6.88,4.26,2.63,1.05,5.41,1.57,8.35,1.57,3.01,0,5.87-.52,8.56-1.57,2.7-1.05,5.04-2.47,7.04-4.26,2-1.79,3.57-3.87,4.73-6.25,1.15-2.38,1.73-4.9,1.73-7.57,0-2.66-.51-5.27-1.52-7.83-1.02-2.56-2.47-4.83-4.36-6.83-1.89-2-4.2-3.59-6.94-4.78-2.73-1.19-5.82-1.79-9.25-1.79-3.5,0-6.61.6-9.3,1.79-2.7,1.19-4.96,2.79-6.78,4.78-1.82,2-3.19,4.27-4.1,6.83-.91,2.56-1.37,5.17-1.37,7.83Z"/>
      <path class="cls-2" d="M307.36,402.56c1.61-11.21,3.8-22.23,6.57-33.06,2.77-10.82,6.23-21.4,10.41-31.74,4.17-10.33,9.09-20.39,14.77-30.16,5.68-9.77,12.23-19.18,19.65-28.22h-71.78s0-19.34,0-19.34h102.68s0,15.66,0,15.66c-7.15,8.97-13.75,17.97-19.81,27.01-6.06,9.04-11.51,18.59-16.34,28.64-4.83,10.05-9,20.9-12.51,32.53-3.5,11.63-6.24,24.52-8.2,38.68h-25.43Z"/>
    </g>
  </g>
</svg>